<?xml version="1.0" encoding="UTF-8"?>
<svg xmlns="http://www.w3.org/2000/svg" viewBox="0 0 180 180">
  <defs>
    <style>
      .cls-1 {
        font-size: 23px;
      }

      .cls-1, .cls-2 {
        fill: #fff;
      }

      .cls-1, .cls-3 {
        font-family: MontserratAlternates-Bold, 'Montserrat Alternates';
        font-weight: 700;
      }

      .cls-4 {
        fill: #ee5e61;
      }

      .cls-5 {
        fill: #a2d394;
      }

      .cls-6 {
        letter-spacing: 0em;
      }

      .cls-3 {
        font-size: 43px;
        stroke: #fff;
        stroke-miterlimit: 10;
        stroke-width: .75px;
      }

      .cls-7 {
        letter-spacing: 0em;
      }

      .cls-8 {
        fill: #f9a857;
      }

      .cls-9 {
        fill: #141e2f;
      }

      .cls-10 {
        fill: #bd6bd9;
      }

      .cls-11 {
        fill: #5f94f5;
      }
    </style>
  </defs>
  <g id="Camada_1">
    <rect class="cls-9" width="180" height="180"/>
  </g>
  <g id="Camada_2">
    <text class="cls-1" transform="translate(12.52 84.07)"><tspan x="0" y="0">E</tspan><tspan class="cls-7" x="15.34" y="0">S</tspan><tspan class="cls-6" x="29.85" y="0">T</tspan><tspan x="44.3" y="0">AÇÃO</tspan></text>
    <text class="cls-3" transform="translate(13.46 122.87)"><tspan class="cls-8" x="0" y="0">S</tspan><tspan class="cls-11" x="27.43" y="0">A</tspan><tspan class="cls-10" x="61.66" y="0">B</tspan><tspan class="cls-4" x="94.56" y="0">E</tspan><tspan class="cls-5" x="123.24" y="0">R</tspan></text>
    <path class="cls-2" d="M108.93,62.13c-.19-1.88.54-3.75,1.95-5,.36-.32-.17-.85-.53-.53-1.55,1.36-2.38,3.48-2.17,5.53.05.48.8.48.75,0h0Z"/>
    <path class="cls-2" d="M113.15,54.24c1.72-1.32,3.64-2.36,5.7-3.07.45-.16.26-.88-.2-.72-2.11.73-4.1,1.78-5.88,3.14-.16.12-.24.32-.13.51.09.16.35.26.51.13h0Z"/>
    <path class="cls-2" d="M121.83,50.19c1.9-.82,4.15-.65,5.91.41.42.25.79-.4.38-.65-2.02-1.21-4.52-1.34-6.67-.41-.44.19-.06.84.38.65h0Z"/>
    <path class="cls-2" d="M129.99,51.33c1.52.63,2.87,1.7,3.83,3.04.12.16.33.24.51.13.16-.09.25-.35.13-.51-1.09-1.51-2.56-2.68-4.28-3.39-.19-.08-.41.08-.46.26-.06.22.07.38.26.46h0Z"/>
    <path class="cls-2" d="M136.59,57.02c1.4,1.58,2.56,3.37,3.43,5.3.2.44.85.06.65-.38-.9-1.98-2.1-3.82-3.55-5.45-.32-.36-.85.17-.53.53h0Z"/>
    <path class="cls-2" d="M141,64.71c.55,1.03.93,2.13,1.16,3.27.04.2.28.31.46.26.21-.06.3-.26.26-.46-.24-1.2-.66-2.37-1.24-3.45-.23-.43-.87-.05-.65.38h0Z"/>
    <path class="cls-2" d="M138.92,71.21l7.68-.02c.48,0,.48-.75,0-.75l-7.68.02c-.48,0-.48.75,0,.75h0Z"/>
    <path class="cls-2" d="M138.49,70.41c-.78,2.94-.92,6.02-.36,9.02.29,1.55.79,3.04,1.38,4.5.4.98.77,2.49,1.73,3.09,2.14,1.32,4.36-2.17,5.18-3.65,1.29-2.33,1.93-4.95,2.37-7.55.13-.76.24-1.52.34-2.29.08-.56.26-1.21.14-1.77-.11-.49-.46-.73-.93-.83-.88-.18-1.81-.24-2.71-.35-.48-.06-.47.69,0,.75.42.05.83.11,1.25.16.37.05,1.03.01,1.36.18.61.31.16,1.66.09,2.17-.19,1.36-.41,2.71-.72,4.05-.61,2.66-1.59,5.3-3.43,7.37-.47.52-1.04,1.1-1.75,1.24-1.01.2-1.35-.76-1.67-1.5-.65-1.5-1.27-3.01-1.67-4.6-.8-3.21-.74-6.58.11-9.78.12-.47-.6-.67-.72-.2h0Z"/>
    <path class="cls-2" d="M146.62,81.46c-.47-.32-1.15.04-1.64.12-.65.12-1.33.14-1.99.09-1.32-.1-2.59-.53-3.7-1.24-.41-.26-.79.39-.38.65,1.09.69,2.32,1.13,3.6,1.29.64.08,1.28.1,1.91.04.31-.03.62-.07.93-.14.19-.04.73-.28.89-.17.4.27.77-.38.38-.65h0Z"/>
    <path class="cls-2" d="M147.71,71.09l.68-1.51c.04-.09.07-.19.04-.29-.02-.09-.09-.18-.17-.22-.16-.09-.43-.06-.51.13l-.68,1.51c-.04.09-.07.19-.04.29.02.09.09.18.17.22.16.09.43.06.51-.13h0Z"/>
    <path class="cls-2" d="M141.45,70.44l-.9-1.8c-.09-.18-.35-.24-.51-.13-.18.12-.23.32-.13.51l.9,1.8c.09.18.35.24.51.13.18-.12.23-.32.13-.51h0Z"/>
    <path class="cls-2" d="M140.76,68.88c1.4-.14,2.81-.25,4.22-.29.68-.02,1.36-.02,2.04.01.24.01.53,0,.73.15.08.06.25.33.07.37-.47.12-.27.84.2.72.58-.14.77-.86.5-1.35-.37-.67-1.28-.64-1.94-.66-1.95-.05-3.89.1-5.83.29-.48.05-.48.8,0,.75h0Z"/>
    <path class="cls-2" d="M138.31,77.17c-.62-.29-1.28-.59-1.77-1.08-.58-.58-.61-1.31-.63-2.09-.05-1.8-.1-3.59-.15-5.39h-.75c.22,1.91,1.97,3.19,3.87,2.76.47-.11.27-.83-.2-.72-1.38.31-2.75-.61-2.92-2.04-.05-.47-.76-.49-.75,0,.06,2,.03,4.03.17,6.02.05.76.28,1.44.83,1.99s1.24.88,1.92,1.2c.44.2.82-.45.38-.65h0Z"/>
    <path class="cls-2" d="M148.31,78.07c1.45.19,3.32-.51,3.81-2.01.29-.9.5-1.85.75-2.76.26-.97.52-1.94.79-2.91.1-.37-.36-.62-.63-.36-.61.57-1.23,1.14-2.03,1.4-.86.28-1.8.36-2.7.37-.48,0-.48.75,0,.75,1,0,2.08-.1,3.03-.44.88-.32,1.56-.92,2.24-1.55l-.63-.36c-.45,1.68-.91,3.35-1.36,5.03-.09.34-.16.73-.36,1.03s-.53.53-.85.7c-.63.35-1.34.46-2.06.37-.48-.06-.47.69,0,.75h0Z"/>
    <path class="cls-2" d="M139.23,70.84c1.58.17,3.17.36,4.75.56s3.11.28,4.52.88c.44.19.82-.46.38-.65-1.43-.62-3-.74-4.53-.94-1.7-.22-3.41-.42-5.11-.61-.48-.05-.48.7,0,.75h0Z"/>
    <path class="cls-2" d="M148.12,72.44c-.24,3.51-1.22,6.94-2.88,10.04-.44.81-2.07,4.16-3.29,3.5-.39-.21-.48-.8-.62-1.19-.15-.44-.3-.87-.45-1.31-.33-.96-.66-1.92-.99-2.88-.16-.45-.88-.26-.72.2.4,1.18.81,2.35,1.21,3.53.25.72.43,1.8,1.08,2.29,1.4,1.03,2.96-1.35,3.56-2.3,2.25-3.57,3.56-7.68,3.84-11.89.03-.48-.72-.48-.75,0h0Z"/>
    <path class="cls-2" d="M138.82,70.68c-1.15,3.34-1.64,7.1.14,10.31.23.42.88.04.65-.38-1.68-3.04-1.15-6.59-.07-9.73.16-.46-.57-.65-.72-.2h0Z"/>
    <path class="cls-2" d="M138.94,71.35c-.43,3.43-.83,6.92-.04,10.34.11.47.83.27.72-.2-.78-3.34-.36-6.78.06-10.14.06-.48-.69-.47-.75,0h0Z"/>
    <path class="cls-2" d="M139.85,80.44c-.28-1.55-.47-3.11-.57-4.68-.09-1.39-.31-3.02.36-4.3.23-.43-.42-.81-.65-.38-.72,1.37-.57,3-.48,4.5.1,1.7.31,3.39.61,5.06.08.47.81.27.72-.2h0Z"/>
    <path class="cls-2" d="M145.07,81.93c-.84-.2-1.68-.4-2.52-.61-.74-.18-1.42-.43-1.99-.95-.36-.32-.89.21-.53.53.62.56,1.35.89,2.16,1.1.89.23,1.79.44,2.68.65.47.11.67-.61.2-.72h0Z"/>
    <path class="cls-2" d="M139.33,80.64l1.24.76c.17.1.42.04.51-.13s.04-.4-.13-.51l-1.24-.76c-.17-.1-.42-.04-.51.13s-.04.4.13.51h0Z"/>
    <path class="cls-2" d="M143.92,74.66c.6-.11,1.22.31,1.4.88.21.65-.05,1.36-.58,1.77-.27.21-.59.34-.93.4-.37.06-.68,0-.94-.28-.48-.51-.86-1.26-.61-1.96.27-.77,1.21-.82,1.9-.85.48-.02.48-.77,0-.75-.93.04-2.04.18-2.5,1.12s-.09,2.04.56,2.83c.35.43.81.68,1.38.67.48-.01.97-.16,1.37-.42.86-.54,1.33-1.55,1.12-2.55-.23-1.07-1.3-1.77-2.37-1.58-.2.04-.31.28-.26.46.06.21.26.3.46.26h0Z"/>
    <path class="cls-2" d="M148.31,77.53c1.37.26,2.57-.62,3.23-1.76.72-1.25.89-2.72,1.61-3.97.2-.35-.19-.65-.51-.51-1.07.47-2.25.61-3.41.48-.2-.02-.37.19-.38.38,0,.22.17.35.38.38,1.3.15,2.59-.06,3.79-.58l-.51-.51c-.64,1.12-.84,2.41-1.39,3.56-.46.98-1.39,2.05-2.6,1.82-.47-.09-.67.63-.2.72h0Z"/>
    <path class="cls-2" d="M137.94,76.48c-1.83-1.39-2.58-3.94-1.88-6.11l-.55.22c.86.53,1.81.9,2.81,1.09.47.09.67-.63.2-.72-.94-.18-1.82-.52-2.63-1.01-.21-.13-.48,0-.55.22-.81,2.52.13,5.37,2.23,6.96.38.29.76-.36.38-.65h0Z"/>
    <path class="cls-2" d="M141.1,88.66c-.11.17-.23.33-.35.49,0,.01-.06.07-.01.01-.01.02-.03.03-.04.05-.03.04-.06.08-.09.11-.07.08-.13.16-.2.24-.26.3-.55.59-.85.85-.15.13-.14.4,0,.53.16.14.37.14.53,0,.63-.56,1.19-1.21,1.65-1.91.11-.16.04-.42-.13-.51-.19-.1-.4-.04-.51.13h0Z"/>
  </g>
</svg>