<?xml version="1.0" encoding="UTF-8"?>
<svg id="Camada_1" xmlns="http://www.w3.org/2000/svg" version="1.1" viewBox="0 0 1920 1080">
  <!-- Generator: Adobe Illustrator 29.0.1, SVG Export Plug-In . SVG Version: 2.1.0 Build 192)  -->
  <defs>
    <style>
      .st0, .st1 {
        fill: none;
        stroke: #f2f2f2;
        stroke-miterlimit: 10;
      }

      .st2 {
        fill: #f2f2f2;
      }

      .st1 {
        stroke-width: 3px;
      }

      .st3 {
        fill: #141e2f;
      }
    </style>
  </defs>
  <rect class="st3" x="-142" y="0" width="2145" height="2525"/>
  <path class="st2" d="M1140.1,383.39v1.33c0,1.93,3,1.93,3,0v-1.33c0-1.93-3-1.93-3,0v1.33c0,1.93,3,1.93,3,0v-1.33c0-1.93-3-1.93-3,0h0Z"/>
  <path class="st2" d="M1084.34,557.25c.72-.72,1.44-1.44,2.16-2.16.27-.27.44-.68.44-1.06s-.16-.81-.44-1.06-.66-.46-1.06-.44-.77.15-1.06.44l-2.16,2.16c-.27.27-.44.68-.44,1.06s.16.81.44,1.06.66.46,1.06.44.77-.15,1.06-.44h0Z"/>
  <path class="st2" d="M609.51,381.62c.03-.14.08-.27.13-.4l-.15.36c.09-.21.21-.41.35-.59l-.23.3c.16-.21.35-.4.56-.56l-.3.23c.23-.17.47-.32.73-.43l-.36.15c.28-.12.57-.2.87-.24l-.4.05c.26-.03.53-.03.79,0l-.4-.05c.23.03.45.09.66.18l-.36-.15s.1.04.15.07c.37.18.75.26,1.16.15.35-.1.73-.36.9-.69.35-.67.22-1.69-.54-2.05-.64-.31-1.32-.5-2.04-.48s-1.37.2-2.02.5c-1.15.54-2.08,1.62-2.39,2.85-.19.76.25,1.66,1.05,1.85s1.64-.23,1.85-1.05h0Z"/>
  <path class="st2" d="M774.4,832.01h2.16c.38,0,.79-.17,1.06-.44s.46-.69.44-1.06-.14-.79-.44-1.06-.65-.44-1.06-.44h-2.16c-.38,0-.79.17-1.06.44s-.46.69-.44,1.06.14.79.44,1.06.65.44,1.06.44h0Z"/>
  <path class="st2" d="M852.16,393.53h2.16c.38,0,.79-.17,1.06-.44s.46-.69.44-1.06-.14-.79-.44-1.06-.65-.44-1.06-.44h-2.16c-.38,0-.79.17-1.06.44s-.46.69-.44,1.06.14.79.44,1.06.65.44,1.06.44h0Z"/>
  <path class="st2" d="M387.76,940.01h4.32c.78,0,1.54-.69,1.5-1.5s-.66-1.5-1.5-1.5h-4.32c-.78,0-1.54.69-1.5,1.5s.66,1.5,1.5,1.5h0Z"/>
  <path class="st2" d="M453.22,556.19v2.16c0,.38.17.79.44,1.06s.69.46,1.06.44.79-.14,1.06-.44.44-.65.44-1.06v-2.16c0-.38-.17-.79-.44-1.06s-.69-.46-1.06-.44-.79.14-1.06.44-.44.65-.44,1.06h0Z"/>
  <path class="st2" d="M1063.84,963.77c1.93,0,1.93-3,0-3s-1.93,3,0,3h0Z"/>
  <path class="st2" d="M830.56,583.61c1.44,0,2.88,0,4.32,0,.78,0,1.54-.69,1.5-1.5s-.66-1.5-1.5-1.5c-1.44,0-2.88,0-4.32,0-.78,0-1.54.69-1.5,1.5s.66,1.5,1.5,1.5h0Z"/>
  <path class="st2" d="M1177.47,786.45c1.41-1.47,2.83-2.93,4.24-4.4.55-.57.6-1.57,0-2.12s-1.54-.6-2.12,0c-1.41,1.47-2.83,2.93-4.24,4.4-.55.57-.6,1.57,0,2.12s1.54.6,2.12,0h0Z"/>
  <path class="st2" d="M327.28,717.53h2.16c.38,0,.79-.17,1.06-.44s.46-.69.44-1.06-.14-.79-.44-1.06-.65-.44-1.06-.44h-2.16c-.38,0-.79.17-1.06.44s-.46.69-.44,1.06.14.79.44,1.06.65.44,1.06.44h0Z"/>
  <path class="st2" d="M642,684.69c1.43.73,2.87,1.46,4.3,2.19.36.18.76.26,1.16.15.35-.1.73-.36.9-.69.36-.68.21-1.67-.54-2.05-1.43-.73-2.87-1.46-4.3-2.19-.36-.18-.76-.26-1.16-.15-.35.1-.73.36-.9.69-.36.68-.21,1.67.54,2.05h0Z"/>
  <g>
    <path class="st2" d="M831.53,994.01c-.48-10.21-2.7-20.28-6.61-29.72-.73-1.76-3.63-.99-2.89.8,3.81,9.2,6.04,18.98,6.51,28.92.09,1.92,3.09,1.93,3,0h0Z"/>
    <path class="st2" d="M825.08,964.81c.39-3.48-3.54-5.68-6.6-5.1-3.95.74-5.93,5-7.44,8.26-1.96,4.23-3.62,8.61-4.92,13.09-.64,2.21-1.31,4.48-1.62,6.77-.26,1.89-.02,3.88,1.37,5.31,2.43,2.49,6.31,1.47,9.06.17,1.93-.91,3.65-2.23,5.42-3.41,2.05-1.38,4.11-2.75,6.16-4.13s4.25-2.83,6.36-4.27c1.52-1.03,3.05-2.27,3.89-3.94s.82-3.57-.47-4.98-3.2-1.61-4.95-1.7c-11.33-.59-22.75-.1-34.01,1.16-1.18.13-1.8,1.16-1.3,2.26,2.91,6.38,10.69,7.79,16.35,10.71,6.72,3.47,12.44,8.68,16.54,15.04,1.04,1.62,3.64.12,2.59-1.51-4.07-6.33-9.64-11.65-16.21-15.35-3.05-1.72-6.34-2.87-9.51-4.32-2.95-1.35-5.77-3.02-7.17-6.07l-1.3,2.26c8.18-.92,16.4-1.38,24.63-1.38,1.97,0,3.95.03,5.92.09,1.67.05,3.57-.12,5.19.34,3.99,1.14-2.4,5.27-3.56,6.05-3.42,2.29-6.84,4.59-10.27,6.88-2.54,1.71-5.08,3.8-8.13,4.48-.92.21-2.12.33-2.92-.3-1.36-1.07-.72-3.26-.4-4.67.83-3.6,1.89-7.14,3.16-10.6.75-2.04,1.58-4.06,2.48-6.04.78-1.71,1.56-3.51,2.68-5.03.88-1.19,2.22-2.47,3.82-2.25,1.19.16,2.29.91,2.15,2.19-.22,1.92,2.79,1.9,3,0h0Z"/>
  </g>
  <path class="st2" d="M862.96,1037.21c1.93,0,1.93-3,0-3s-1.93,3,0,3h0Z"/>
  <path class="st2" d="M206.12,683.53h2.16c.38,0,.79-.17,1.06-.44s.46-.69.44-1.06-.14-.79-.44-1.06-.65-.44-1.06-.44h-2.16c-.38,0-.79.17-1.06.44s-.46.69-.44,1.06.14.79.44,1.06.65.44,1.06.44h0Z"/>
  <path class="st2" d="M515.2,753.41h-2.16c-.38,0-.79.17-1.06.44s-.46.69-.44,1.06.14.79.44,1.06.65.44,1.06.44h2.16c.38,0,.79-.17,1.06-.44s.46-.69.44-1.06-.14-.79-.44-1.06-.65-.44-1.06-.44h0Z"/>
  <path class="st2" d="M790.74,968.76c-13.49,2.75-25.51,11.34-32.55,23.16-.99,1.66,1.6,3.17,2.59,1.51,6.67-11.2,18-19.19,30.76-21.78,1.89-.38,1.09-3.28-.8-2.89h0Z"/>
  <path class="st2" d="M793.54,979c-4.71-1.06-9.61.83-12.5,4.67-.49.65-.1,1.68.54,2.05.77.45,1.56.11,2.05-.54-.11.15.07-.09.11-.13.07-.08.14-.16.21-.24.16-.18.32-.35.49-.51s.34-.32.52-.48c.08-.07.16-.14.24-.2.08-.06.08-.07,0,0l.13-.09c.39-.27.79-.52,1.21-.75.21-.11.42-.21.64-.31.24-.11-.16.06.08-.03.12-.05.25-.1.37-.14.42-.15.85-.28,1.29-.38.23-.05.46-.1.7-.14.49-.08-.14.01.15-.02.1-.01.21-.02.31-.03.47-.04.95-.04,1.42-.01.13,0,.26.02.39.03.07,0,.24.03.07,0,.26.04.52.09.78.15.79.18,1.62-.24,1.85-1.05.21-.75-.25-1.67-1.05-1.85h0Z"/>
  <path class="st0" d="M394.96,529.21c42.53,171.2,344.68,247.5,674.88,170.43,330.2-77.07,563.4-278.33,520.87-449.53C1548.18,78.92,1246.03,2.61,915.83,79.68c-330.2,77.07-563.4,278.33-520.87,449.53Z"/>
  <path class="st0" d="M322.1,515.15c32.52,201.9,361.19,319.82,734.1,263.38,372.91-56.44,648.85-265.87,616.33-467.77C1640,108.86,1311.33-9.05,938.42,47.39c-372.91,56.44-648.85,265.87-616.33,467.77Z"/>
  <g>
    <circle class="st1" cx="1106.43" cy="980.24" r="35.13"/>
    <path class="st2" d="M1077.8,956.61c-4.65-3.61-10.25-7.66-16.48-7.18-4.99.39-10.22,4.01-10.79,9.27-.67,6.17,5.53,9.89,9.89,12.88,5.69,3.9,11.45,7.7,17.38,11.22,11.76,6.99,24.32,12.91,37.72,15.94,6.62,1.5,13.43,2.32,20.22,2.2,5.97-.11,12.47-.62,17.97-3.14,2.48-1.14,4.88-2.9,6.18-5.36,1.45-2.74,1.38-5.87.1-8.65-3.12-6.76-10.81-8.29-17.45-9.18-.81-.11-1.6.19-1.85,1.05-.2.7.25,1.74,1.05,1.85,5.22.7,11.49,1.47,14.74,6.18,1.36,1.97,1.99,4.45,1.06,6.74-.81,1.99-2.58,3.36-4.42,4.34-4.64,2.46-10.42,2.91-15.57,3.13-6.07.26-12.15-.25-18.11-1.39-11.96-2.28-23.29-6.96-33.95-12.77-5.31-2.9-10.47-6.07-15.53-9.37-2.57-1.68-5.11-3.39-7.64-5.12-2.23-1.53-4.61-2.97-6.51-4.92s-2.96-4.35-1.9-6.88c.94-2.25,3.19-3.9,5.47-4.61,5.94-1.86,11.88,2.45,16.31,5.89,1.51,1.17,3.65-.94,2.12-2.12h0Z"/>
  </g>
  <path class="st2" d="M960.88,774.41h5.76c.78,0,1.54-.69,1.5-1.5s-.66-1.5-1.5-1.5h-5.76c-.78,0-1.54.69-1.5,1.5s.66,1.5,1.5,1.5h0Z"/>
  <path class="st2" d="M1454.74,185.39v11.52c0,1.93,3,1.93,3,0v-11.52c0-1.93-3-1.93-3,0h0Z"/>
  <path class="st2" d="M721.84,264.65h2.88c.38,0,.79-.17,1.06-.44s.46-.69.44-1.06-.14-.79-.44-1.06-.65-.44-1.06-.44h-2.88c-.38,0-.79.17-1.06.44s-.46.69-.44,1.06.14.79.44,1.06.65.44,1.06.44h0Z"/>
  <path class="st2" d="M1204.18,127.79v2.88c0,.38.17.79.44,1.06s.69.46,1.06.44.79-.14,1.06-.44.44-.65.44-1.06v-2.88c0-.38-.17-.79-.44-1.06s-.69-.46-1.06-.44-.79.14-1.06.44-.44.65-.44,1.06h0Z"/>
  <path class="st2" d="M1021.36,328.01c1.93,0,1.93-3,0-3s-1.93,3,0,3h0Z"/>
  <path class="st2" d="M900.4,126.41c1.93,0,1.93-3,0-3s-1.93,3,0,3h0Z"/>
  <path class="st2" d="M1339.98,311.05c-.96.96-1.92,1.92-2.88,2.88-.27.27-.44.68-.44,1.06s.16.81.44,1.06.66.46,1.06.44.77-.15,1.06-.44c.96-.96,1.92-1.92,2.88-2.88.27-.27.44-.68.44-1.06s-.16-.81-.44-1.06-.66-.46-1.06-.44-.77.15-1.06.44h0Z"/>
  <path class="st2" d="M361.84,51.53c1.93,0,1.93-3,0-3s-1.93,3,0,3h0Z"/>
  <path class="st2" d="M341.68,256.01c1.93,0,1.93-3,0-3s-1.93,3,0,3h0Z"/>
  <path class="st2" d="M726.22,35.63v-2.88c0-.38-.17-.79-.44-1.06s-.69-.46-1.06-.44-.79.14-1.06.44-.44.65-.44,1.06v2.88c0,.38.17.79.44,1.06s.69.46,1.06.44.79-.14,1.06-.44.44-.65.44-1.06h0Z"/>
  <path class="st2" d="M1761.56,564.05c1.93,0,1.93-3,0-3s-1.93,3,0,3h0Z"/>
  <path class="st2" d="M1438.96,808.97c1.93,0,1.93-3,0-3s-1.93,3,0,3h0Z"/>
  <path class="st2" d="M1418.84,751.25c1.93,0,1.93-3,0-3s-1.93,3,0,3h0Z"/>
  <path class="st2" d="M1184.02,1066.67v2.88c0,.38.17.79.44,1.06s.69.46,1.06.44.79-.14,1.06-.44.44-.65.44-1.06v-2.88c0-.38-.17-.79-.44-1.06s-.69-.46-1.06-.44-.79.14-1.06.44-.44.65-.44,1.06h0Z"/>
  <path class="st2" d="M1467,1065.37c-1.92.96-3.84,1.92-5.76,2.88-.7.35-.96,1.4-.54,2.05.46.72,1.3.91,2.05.54,1.92-.96,3.84-1.92,5.76-2.88.7-.35.96-1.4.54-2.05-.46-.72-1.3-.91-2.05-.54h0Z"/>
  <path class="st2" d="M1498.15,859.61c.02-.12.06-.23.1-.35s-.21.42-.06.17c.03-.05.06-.11.09-.16.07-.12.2-.18-.13.16.04-.04.08-.09.12-.14.03-.03.06-.06.1-.09.12-.11.29-.15-.13.09.09-.05.18-.12.27-.17.05-.03.11-.06.17-.08.19-.1-.4.15-.18.08.23-.07.46-.14.7-.17l-.4.05c.31-.04.62-.04.93,0l-.4-.05c.24.04.47.1.7.18.21.07-.41-.2-.14-.06.04.02.08.04.12.06.08.04.42.29.16.09s.05.06.12.13c.03.03.06.07.09.1-.34-.34-.19-.25-.1-.12.03.05.06.11.09.16.11.18-.14-.4-.08-.19.04.13.08.25.1.38.06.35.39.72.69.9.32.19.8.27,1.16.15s.71-.34.9-.69c.2-.38.23-.74.15-1.16-.25-1.4-1.48-2.44-2.82-2.77-1.23-.31-2.72-.17-3.77.61-.7.52-1.26,1.22-1.44,2.09-.16.77.22,1.66,1.05,1.85.75.17,1.68-.23,1.85-1.05h0Z"/>
  <path class="st2" d="M1689.56,716.69c.96,0,1.92,0,2.88,0,.38,0,.79-.17,1.06-.44s.46-.69.44-1.06-.14-.79-.44-1.06-.65-.44-1.06-.44c-.96,0-1.92,0-2.88,0-.38,0-.79.17-1.06.44s-.46.69-.44,1.06.14.79.44,1.06.65.44,1.06.44h0Z"/>
  <path class="st2" d="M1570.42,598.93l-2.88,2.88c-.27.27-.44.68-.44,1.06s.16.81.44,1.06.66.46,1.06.44.77-.15,1.06-.44l2.88-2.88c.27-.27.44-.68.44-1.06s-.16-.81-.44-1.06-.66-.46-1.06-.44-.77.15-1.06.44h0Z"/>
  <path class="st2" d="M1546.94,775.67c0,.96,0,1.92,0,2.88,0,.38.17.79.44,1.06s.69.46,1.06.44.79-.14,1.06-.44.44-.65.44-1.06c0-.96,0-1.92,0-2.88,0-.38-.17-.79-.44-1.06s-.69-.46-1.06-.44-.79.14-1.06.44-.44.65-.44,1.06h0Z"/>
  <path class="st2" d="M1372.72,1765.13c1.93,0,1.93-3,0-3s-1.93,3,0,3h0Z"/>
  <path class="st2" d="M1612.26,917.85c.96.96,1.92,1.92,2.88,2.88.27.27.68.44,1.06.44s.81-.16,1.06-.44.46-.66.44-1.06-.15-.77-.44-1.06c-.96-.96-1.92-1.92-2.88-2.88-.27-.27-.68-.44-1.06-.44s-.81.16-1.06.44-.46.66-.44,1.06.15.77.44,1.06h0Z"/>
  <path class="st2" d="M1418.8,1462.73c1.93,0,1.93-3,0-3s-1.93,3,0,3h0Z"/>
  <path class="st2" d="M1806.58,635.61c.96.96,1.92,1.92,2.88,2.88.27.27.68.44,1.06.44s.81-.16,1.06-.44.46-.66.44-1.06-.15-.77-.44-1.06c-.96-.96-1.92-1.92-2.88-2.88-.27-.27-.68-.44-1.06-.44s-.81.16-1.06.44-.46.66-.44,1.06.15.77.44,1.06h0Z"/>
  <path class="st2" d="M1453.88,2036.97c1.93,0,1.93-3,0-3s-1.93,3,0,3h0Z"/>
  <path class="st2" d="M401.21,76.07c.38,1.53,1.54,2.84,2.96,3.5,1.59.74,3.32.8,4.91.04.71-.34.95-1.41.54-2.05-.47-.73-1.29-.9-2.05-.54-.04.02-.09.04-.13.06l.23-.1s-.16.06-.2.07c-.13.04-.27.08-.41.11-.13.03-.36.01.12,0-.06,0-.12.01-.18.02-.13,0-.26.01-.39,0-.16,0-.62-.1-.09,0-.14-.03-.28-.05-.42-.08-.13-.03-.25-.07-.38-.11-.07-.02-.13-.05-.2-.07-.15-.05.38.18.1.04-.25-.12-.48-.26-.7-.42-.21-.14.28.24.08.06-.05-.05-.11-.09-.16-.14-.1-.09-.19-.18-.27-.28-.04-.04-.08-.09-.12-.13-.18-.2.2.29.06.08-.08-.12-.16-.23-.22-.36-.03-.06-.06-.13-.1-.19-.12-.23.13.36.04.1-.05-.14-.09-.27-.13-.41-.19-.76-1.09-1.29-1.85-1.05s-1.25,1.03-1.05,1.85h0Z"/>
  <path class="st2" d="M1785.14,962.27c-.97,1.91-1.95,3.83-2.92,5.74-.36.7-.21,1.66.54,2.05.68.36,1.67.21,2.05-.54.97-1.91,1.95-3.83,2.92-5.74.36-.7.21-1.66-.54-2.05-.68-.36-1.67-.21-2.05.54h0Z"/>
  <path class="st2" d="M440.12,310.45c1.93,0,1.93-3,0-3s-1.93,3,0,3h0Z"/>
  <path class="st2" d="M667.64,157.81c1.93,0,1.93-3,0-3s-1.93,3,0,3h0Z"/>
  <path class="st2" d="M54.14,190.87c0,2.88,0,5.76,0,8.64,0,.78.69,1.54,1.5,1.5s1.5-.66,1.5-1.5c0-2.88,0-5.76,0-8.64,0-.78-.69-1.54-1.5-1.5s-1.5.66-1.5,1.5h0Z"/>
  <path class="st2" d="M1723.2,748.33h4.32c.78,0,1.54-.69,1.5-1.5s-.66-1.5-1.5-1.5h-4.32c-.78,0-1.54.69-1.5,1.5s.66,1.5,1.5,1.5h0Z"/>
  <path class="st2" d="M46.28,836.89c1.93,0,1.93-3,0-3s-1.93,3,0,3h0Z"/>
  <path class="st2" d="M382.18,883.97c1.44,1.44,2.88,2.88,4.32,4.32.56.56,1.57.6,2.12,0s.59-1.53,0-2.12c-1.44-1.44-2.88-2.88-4.32-4.32-.56-.56-1.57-.6-2.12,0s-.59,1.53,0,2.12h0Z"/>
  <path class="st2" d="M1634.88,188.45c1.93,0,1.93-3,0-3s-1.93,3,0,3h0Z"/>
  <path class="st2" d="M865.78,1573.55v4.32c0,.78.69,1.54,1.5,1.5s1.5-.66,1.5-1.5v-4.32c0-.78-.69-1.54-1.5-1.5s-1.5.66-1.5,1.5h0Z"/>
  <path class="st2" d="M671.38,998.99v4.32c0,.78.69,1.54,1.5,1.5s1.5-.66,1.5-1.5v-4.32c0-.78-.69-1.54-1.5-1.5s-1.5.66-1.5,1.5h0Z"/>
  <path class="st2" d="M418,2335.37c1.93,0,1.93-3,0-3s-1.93,3,0,3h0Z"/>
  <path class="st2" d="M1613.28,19.97h4.32c.78,0,1.54-.69,1.5-1.5s-.66-1.5-1.5-1.5h-4.32c-.78,0-1.54.69-1.5,1.5s.66,1.5,1.5,1.5h0Z"/>
  <path class="st2" d="M1725.6,430.37c1.93,0,1.93-3,0-3s-1.93,3,0,3h0Z"/>
  <path class="st2" d="M1751.52,188.45c1.93,0,1.93-3,0-3s-1.93,3,0,3h0Z"/>
  <path class="st2" d="M1117.84,2326.73c1.93,0,1.93-3,0-3s-1.93,3,0,3h0Z"/>
  <path class="st2" d="M1436.98,2220.17c-1.44,1.44-2.88,2.88-4.32,4.32-.56.56-.6,1.57,0,2.12s1.53.59,2.12,0c1.44-1.44,2.88-2.88,4.32-4.32.56-.56.6-1.57,0-2.12s-1.53-.59-2.12,0h0Z"/>
  <path class="st2" d="M167.56,265.73c.21.05.41.12.61.19.34.12-.28-.15.03.02.09.05.19.09.28.14.17.09.33.2.49.31.28.18-.05-.06.03.02.06.06.14.11.2.17.16.14.31.29.45.45.07.08.14.16.21.24.24.27-.18-.26.03.03.24.34.44.69.63,1.06.09.18.09.13,0-.02.05.09.08.2.11.3.07.2.13.41.19.61.04.15.16.47.13.63.03-.13-.03-.27,0-.03,0,.11.02.21.02.32,0,.19,0,.39,0,.58,0,.07.01.25-.03.32.03-.21.03-.25.02-.14,0,.05-.02.1-.03.16-.04.21-.09.41-.16.61-.03.08-.07.17-.09.25-.04.1-.02.07.05-.11-.03.07-.06.13-.09.19-.34.71-.22,1.65.54,2.05.67.35,1.69.22,2.05-.54,1.02-2.12.92-4.48-.06-6.6-.91-1.97-2.69-3.56-4.81-4.09-.76-.19-1.66.25-1.85,1.05s.23,1.64,1.05,1.85h0Z"/>
  <path class="st2" d="M1861.44,817.45c1.93,0,1.93-3,0-3s-1.93,3,0,3h0Z"/>
  <path class="st2" d="M362.95,407.02c.16-.23-.21.26.07-.06.12-.1.09-.08-.1.07.05-.03.1-.06.15-.09.23-.1-.36.07.03-.01.05-.02.11-.03.16-.04.16-.03.11-.02-.15.02.02-.04.31,0,.35,0,.25-.01-.36-.08.04.02.12.03.24.07.35.11.29.09-.26-.14,0,0,.11.06.23.12.34.19.06.03.11.07.16.11.13.09.11.07-.07-.06.19.03.45.42.57.55.1.12.09.1-.05-.07.04.05.08.11.11.16.07.11.13.23.2.34.13.22-.09-.3.04.09.04.11.06.22.09.33.1.36.01-.25,0,.04,0,.14,0,.28-.01.43.02-.36-.03.15-.05.23-.04.16-.09.33-.14.48-.03.08-.06.16-.09.24.07-.17.07-.17,0-.01-.08.15-.15.3-.24.45s-.18.29-.28.43c-.05.07-.1.14-.15.21.09-.12.1-.13.03-.05-.46.52-.92,1.01-1.45,1.46-.27.24-.55.46-.83.68.25-.19-.18.14-.23.17-.14.11-.28.21-.42.31-.63.46-1.01,1.32-.54,2.05.4.63,1.37,1.03,2.05.54,2.2-1.61,4.76-3.6,5.24-6.47.24-1.42-.03-2.71-.92-3.85-.72-.93-1.76-1.69-2.92-1.97-1.57-.37-3.01.16-3.93,1.48-.45.64-.14,1.7.54,2.05.77.41,1.57.15,2.05-.54h0Z"/>
  <path class="st2" d="M1449.5,2350.83c0,1.44,0,2.88,0,4.32,0,.78.69,1.54,1.5,1.5s1.5-.66,1.5-1.5c0-1.44,0-2.88,0-4.32,0-.78-.69-1.54-1.5-1.5s-1.5.66-1.5,1.5h0Z"/>
  <path class="st2" d="M1955.42,756.53c1.44,1.44,2.88,2.88,4.32,4.32.56.56,1.57.6,2.12,0s.59-1.53,0-2.12c-1.44-1.44-2.88-2.88-4.32-4.32-.56-.56-1.57-.6-2.12,0s-.59,1.53,0,2.12h0Z"/>
  <path class="st2" d="M425.57,2080.98c6.45,2.93,11.31,8.7,13.03,15.58.47,1.87,3.36,1.08,2.89-.8-1.88-7.56-7.3-14.14-14.41-17.37-.74-.33-1.61-.21-2.05.54-.38.64-.2,1.72.54,2.05h0Z"/>
  <path class="st2" d="M548.12,36.85h4.32c.78,0,1.54-.69,1.5-1.5s-.66-1.5-1.5-1.5h-4.32c-.78,0-1.54.69-1.5,1.5s.66,1.5,1.5,1.5h0Z"/>
  <path class="st2" d="M89.48,862.81c1.93,0,1.93-3,0-3s-1.93,3,0,3h0Z"/>
  <path class="st2" d="M1843.1,942.29c1.44,1.44,2.88,2.88,4.32,4.32.56.56,1.57.6,2.12,0s.59-1.53,0-2.12c-1.44-1.44-2.88-2.88-4.32-4.32-.56-.56-1.57-.6-2.12,0s-.59,1.53,0,2.12h0Z"/>
  <path class="st2" d="M1489.92,925.45h17.28c1.93,0,1.93-3,0-3h-17.28c-1.93,0-1.93,3,0,3h0Z"/>
  <path class="st2" d="M1234.48,2413.13c1.93,0,1.93-3,0-3s-1.93,3,0,3h0Z"/>
  <path class="st2" d="M1326.23,2427.77c-2.87-1.46-5.74-2.92-8.61-4.39-.7-.36-1.66-.21-2.05.54-.36.68-.21,1.67.54,2.05,2.87,1.46,5.74,2.92,8.61,4.39.7.36,1.66.21,2.05-.54.36-.68.21-1.67-.54-2.05h0Z"/>
  <path class="st2" d="M92.91,995.78c1.45,2.88,2.89,5.75,4.34,8.63.35.7,1.4.96,2.05.54.72-.46.92-1.3.54-2.05-1.45-2.88-2.89-5.75-4.34-8.63-.35-.7-1.4-.96-2.05-.54-.72.46-.92,1.3-.54,2.05h0Z"/>
  <path class="st2" d="M1788.9-115.45v4.32c0,.78.69,1.54,1.5,1.5s1.5-.66,1.5-1.5v-4.32c0-.78-.69-1.54-1.5-1.5s-1.5.66-1.5,1.5h0Z"/>
  <path class="st2" d="M1842.58,243.83c.42-.31.78-.62,1.05-1.09s.36-.89.4-1.39c.03-.36-.03-.75-.13-1.1s-.26-.73-.46-1.05c-.79-1.3-2.23-2.37-3.8-2.39-.53,0-1.03.13-1.5.37s-.85.66-1.16,1.1c-.21.3-.25.81-.15,1.16s.36.73.69.9c.35.18.77.28,1.16.15s.66-.35.9-.69c.02-.03.04-.06.06-.08l-.23.3c.1-.13.21-.24.33-.34l-.3.23c.1-.07.21-.14.32-.19l-.36.15c.13-.05.26-.09.4-.11l-.4.05c.16-.02.32-.02.48,0l-.4-.05c.22.03.42.09.62.18l-.36-.15c.26.11.5.26.73.43l-.3-.23c.27.21.5.44.71.71l-.23-.3c.17.23.32.47.43.73l-.15-.36c.08.19.14.39.16.59l-.05-.4c.02.16.02.32,0,.47l.05-.4c-.02.14-.06.27-.11.4l.15-.36c-.05.12-.11.22-.19.32l.23-.3c-.1.13-.21.24-.34.34l.3-.23s-.04.03-.06.04c-.33.24-.58.49-.69.9-.1.36-.05.84.15,1.16s.51.6.9.69.84.08,1.16-.15h0Z"/>
  <g>
    <circle class="st1" cx="1159.39" cy="465.78" r="36.31"/>
    <path class="st2" d="M1165.86,499.6c-2.03-3.81-1.96-8.56.29-12.27,1.8-2.96,4.75-4.98,7.64-6.78s6.13-3.59,8.83-5.92c2.89-2.5,4.7-5.65,5.66-9.33.55-2.13.88-4.31,1.44-6.43.29-1.07.62-2.14,1.12-3.13.24-.47.5-.92.8-1.35.12-.18.31-.36.41-.54.35-.57-.01.12-.5-.36l-.44-1.06.13-.46c-.96,1.68,1.63,3.19,2.59,1.51,1.3-2.28-1.88-3.42-3.48-2.16-1.71,1.35-2.67,3.88-3.29,5.89-1.3,4.27-1.35,9.06-4.13,12.75-2.47,3.28-6.25,5.3-9.68,7.39s-7.02,4.46-9.35,7.92c-3.15,4.67-3.27,10.91-.64,15.83.91,1.7,3.5.19,2.59-1.51h0Z"/>
    <path class="st2" d="M1148.07,498.04c-2.88-4.32-3.77-9.72-2.52-14.76,1.22-4.9,4.42-8.41,8.25-11.51,3.47-2.81,7.32-5.28,10.2-8.74,1.43-1.72,2.59-3.63,3.27-5.77.82-2.59.77-5.34.62-8.02-.17-3.09-.59-6.53.87-9.39,1.38-2.7,4.26-4.26,7.25-4.18,1.93.05,1.93-2.95,0-3-2.89-.08-5.72,1.02-7.82,3.01s-3.13,4.82-3.38,7.71c-.27,3.08.26,6.16.17,9.24-.07,2.59-.77,4.95-2.21,7.1-2.67,3.99-7,6.66-10.69,9.61-4.12,3.29-7.62,7.09-9.16,12.25-1.79,5.99-.9,12.75,2.58,17.97,1.07,1.6,3.67.1,2.59-1.51h0Z"/>
    <path class="st2" d="M1130.21,483.45c-.66-3.7-.17-7.6,1.32-11.05s4.08-6.15,7.04-8.54,5.81-4.55,7.34-7.95c1.75-3.88,1.34-8.18,1.18-12.31-.15-3.84.08-8.24,3.22-10.92,1.47-1.25-.66-3.37-2.12-2.12-2.88,2.45-3.87,6.22-4.09,9.87-.25,4.22.78,8.58-.36,12.72s-4.54,6.37-7.58,8.83-5.61,5.29-7.21,8.9c-1.88,4.22-2.44,8.81-1.62,13.36.34,1.9,3.23,1.09,2.89-.8h0Z"/>
  </g>
  <path class="st0" d="M-50.03,317.04c100.26,403.58,590.24,635.36,1094.41,517.68,504.17-117.68,831.61-540.24,731.35-943.83-100.26-403.58-590.24-635.36-1094.41-517.68C177.15-509.11-150.29-86.55-50.03,317.04Z"/>
  <path class="st0" d="M154.23,641.37c27.43,253.23,395.68,423.3,822.5,379.86,426.82-43.44,750.59-283.94,723.16-537.18-27.43-253.23-395.68-423.3-822.5-379.86C450.57,147.63,126.8,388.14,154.23,641.37Z"/>
  <path class="st2" d="M981.51,945.29c-4.08-8.82-5.55-18.82-4.13-28.44.28-1.88-2.58-2.71-2.89-.8-.81,5.05-6.12,8.08-10.4,9.95-5.02,2.2-10.55,3.03-16,2.57-1.57-.13-1.93,2.06-.76,2.8,4.31,2.72,6.8,7.47,7.64,12.4,1.04,6.08-.57,12.32-2.64,18.01l2.95.4c.36-4.92,3.79-9.09,7.83-11.65,4.88-3.1,10.68-4.27,16.26-5.44,1.89-.39,1.09-3.29-.8-2.89-6.18,1.29-12.68,2.65-17.92,6.37-4.53,3.21-7.95,7.96-8.37,13.61-.13,1.79,2.4,1.89,2.95.4,2.32-6.36,3.84-13.22,2.57-19.98-1.04-5.56-4.12-10.77-8.95-13.82l-.76,2.8c6.14.52,12.31-.6,17.9-3.15,4.84-2.21,10.48-5.89,11.4-11.57l-2.89-.8c-1.54,10.49-.02,21.13,4.43,30.75.81,1.75,3.4.23,2.59-1.51h0Z"/>
  <path class="st2" d="M518.48,884.43c1.93,0,1.93-3,0-3s-1.93,3,0,3h0Z"/>
  <path class="st2" d="M501.58,1067.63c-1.44,1.44-2.88,2.88-4.32,4.32-.56.56-.6,1.57,0,2.12s1.53.59,2.12,0c1.44-1.44,2.88-2.88,4.32-4.32.56-.56.6-1.57,0-2.12s-1.53-.59-2.12,0h0Z"/>
  <path class="st2" d="M514.1,1198.29v4.32c0,.78.69,1.54,1.5,1.5s1.5-.66,1.5-1.5v-4.32c0-.78-.69-1.54-1.5-1.5s-1.5.66-1.5,1.5h0Z"/>
  <path class="st2" d="M390.84,1275.23c-2.87-1.46-5.74-2.92-8.61-4.39-.7-.36-1.66-.21-2.05.54-.36.68-.21,1.67.54,2.05,2.87,1.46,5.74,2.92,8.61,4.39.7.36,1.66.21,2.05-.54.36-.68.21-1.67-.54-2.05h0Z"/>
</svg>